<svg width="20" height="20" viewBox="0 0 20 20" fill="none" xmlns="http://www.w3.org/2000/svg">
<path fill-rule="evenodd" clip-rule="evenodd" d="M4 6.25H1V11.5L4 7.17308V6.25ZM2.72982 7.25H2V8.30263L2.72982 7.25ZM1 5.5L4 1V5.5H1ZM2.86852 4.5H3V4.30278L2.86852 4.5ZM19 11.5L16 7.17308V6.25H19V11.5ZM18 8.30263V7.25H17.2702L18 8.30263ZM9.625 2.5V12.9781H7.6104V19L1 14.7245L1.5666 13.8814L4.71441 9.36496L9.625 2.5ZM8.625 5.61682L5.53132 9.94176L2.39784 14.4376L6.6104 17.1623V11.9781H8.625V5.61682ZM10.75 12.9781H12.6912V19L19 14.7847L18.454 13.9416L15.421 9.36496L10.75 2.5V12.9781ZM11.75 5.74736V11.9781H13.6912V17.1292L17.6248 14.5008L17.6176 14.4896L14.5908 9.92248L11.75 5.74736ZM16 1V5.5H19L16 1ZM17 4.30278V4.5H17.1315L17 4.30278Z" fill="#88898A"/>
<path fill-rule="evenodd" clip-rule="evenodd" d="M4 6.25H1V11.5L4 7.17308V6.25ZM2.72982 7.25H2V8.30263L2.72982 7.25ZM1 5.5L4 1V5.5H1ZM2.86852 4.5H3V4.30278L2.86852 4.5ZM19 11.5L16 7.17308V6.25H19V11.5ZM18 8.30263V7.25H17.2702L18 8.30263ZM9.625 2.5V12.9781H7.6104V19L1 14.7245L1.5666 13.8814L4.71441 9.36496L9.625 2.5ZM8.625 5.61682L5.53132 9.94176L2.39784 14.4376L6.6104 17.1623V11.9781H8.625V5.61682ZM10.75 12.9781H12.6912V19L19 14.7847L18.454 13.9416L15.421 9.36496L10.75 2.5V12.9781ZM11.75 5.74736V11.9781H13.6912V17.1292L17.6248 14.5008L17.6176 14.4896L14.5908 9.92248L11.75 5.74736ZM16 1V5.5H19L16 1ZM17 4.30278V4.5H17.1315L17 4.30278Z" fill="black" fill-opacity="0.2"/>
</svg>
