<svg width="20" height="20" viewBox="0 0 20 20" fill="none" xmlns="http://www.w3.org/2000/svg">
<path d="M17.2 5.95078V4.60078C17.2 4.12339 17.0104 3.66555 16.6728 3.32799C16.3352 2.99042 15.8774 2.80078 15.4 2.80078H2.8C2.32261 2.80078 1.86477 2.99042 1.52721 3.32799C1.18964 3.66555 1 4.12339 1 4.60078V17.2008C1 17.6782 1.18964 18.136 1.52721 18.4736C1.86477 18.8111 2.32261 19.0008 2.8 19.0008H5.95" stroke="#88898A" stroke-linecap="round" stroke-linejoin="round"/>
<path d="M17.2 5.95078V4.60078C17.2 4.12339 17.0104 3.66555 16.6728 3.32799C16.3352 2.99042 15.8774 2.80078 15.4 2.80078H2.8C2.32261 2.80078 1.86477 2.99042 1.52721 3.32799C1.18964 3.66555 1 4.12339 1 4.60078V17.2008C1 17.6782 1.18964 18.136 1.52721 18.4736C1.86477 18.8111 2.32261 19.0008 2.8 19.0008H5.95" stroke="black" stroke-opacity="0.2" stroke-linecap="round" stroke-linejoin="round"/>
<path d="M12.7002 1V4.6" stroke="#88898A" stroke-linecap="round" stroke-linejoin="round"/>
<path d="M12.7002 1V4.6" stroke="black" stroke-opacity="0.2" stroke-linecap="round" stroke-linejoin="round"/>
<path d="M5.5 1V4.6" stroke="#88898A" stroke-linecap="round" stroke-linejoin="round"/>
<path d="M5.5 1V4.6" stroke="black" stroke-opacity="0.2" stroke-linecap="round" stroke-linejoin="round"/>
<path d="M1 8.19922H5.5" stroke="#88898A" stroke-linecap="round" stroke-linejoin="round"/>
<path d="M1 8.19922H5.5" stroke="black" stroke-opacity="0.2" stroke-linecap="round" stroke-linejoin="round"/>
<path d="M14.0502 14.9508L12.7002 13.8258V11.8008" stroke="#88898A" stroke-linecap="round" stroke-linejoin="round"/>
<path d="M14.0502 14.9508L12.7002 13.8258V11.8008" stroke="black" stroke-opacity="0.2" stroke-linecap="round" stroke-linejoin="round"/>
<path d="M18.0998 13.5992C18.0998 15.0314 17.5309 16.4049 16.5182 17.4176C15.5055 18.4303 14.132 18.9992 12.6998 18.9992C11.2676 18.9992 9.89412 18.4303 8.88143 17.4176C7.86873 16.4049 7.2998 15.0314 7.2998 13.5992C7.2998 12.167 7.86873 10.7935 8.88143 9.78084C9.89412 8.76815 11.2676 8.19922 12.6998 8.19922C14.132 8.19922 15.5055 8.76815 16.5182 9.78084C17.5309 10.7935 18.0998 12.167 18.0998 13.5992Z" stroke="#88898A" stroke-linecap="round" stroke-linejoin="round"/>
<path d="M18.0998 13.5992C18.0998 15.0314 17.5309 16.4049 16.5182 17.4176C15.5055 18.4303 14.132 18.9992 12.6998 18.9992C11.2676 18.9992 9.89412 18.4303 8.88143 17.4176C7.86873 16.4049 7.2998 15.0314 7.2998 13.5992C7.2998 12.167 7.86873 10.7935 8.88143 9.78084C9.89412 8.76815 11.2676 8.19922 12.6998 8.19922C14.132 8.19922 15.5055 8.76815 16.5182 9.78084C17.5309 10.7935 18.0998 12.167 18.0998 13.5992Z" stroke="black" stroke-opacity="0.2" stroke-linecap="round" stroke-linejoin="round"/>
</svg>
