<svg width="20" height="20" viewBox="0 0 20 20" fill="none" xmlns="http://www.w3.org/2000/svg">
<path d="M17.4012 8.58813L10.2483 2.08519C10.1166 1.96549 9.94504 1.89916 9.7671 1.89917C9.58916 1.89918 9.41761 1.96551 9.28595 2.08522L2.13398 8.58813C2.06025 8.65517 2.00134 8.73687 1.96103 8.828C1.92072 8.91913 1.8999 9.01768 1.8999 9.11733V17.3839C1.8999 17.5736 1.97526 17.7555 2.10939 17.8897C2.24353 18.0238 2.42545 18.0992 2.61515 18.0992H16.9201C17.1098 18.0992 17.2917 18.0238 17.4258 17.8897C17.56 17.7555 17.6353 17.5736 17.6353 17.3839V9.11736C17.6353 9.0177 17.6145 8.91915 17.5742 8.82801C17.5339 8.73687 17.475 8.65517 17.4012 8.58813Z" stroke="#88898A" stroke-linecap="round" stroke-linejoin="round"/>
<path d="M17.4012 8.58813L10.2483 2.08519C10.1166 1.96549 9.94504 1.89916 9.7671 1.89917C9.58916 1.89918 9.41761 1.96551 9.28595 2.08522L2.13398 8.58813C2.06025 8.65517 2.00134 8.73687 1.96103 8.828C1.92072 8.91913 1.8999 9.01768 1.8999 9.11733V17.3839C1.8999 17.5736 1.97526 17.7555 2.10939 17.8897C2.24353 18.0238 2.42545 18.0992 2.61515 18.0992H16.9201C17.1098 18.0992 17.2917 18.0238 17.4258 17.8897C17.56 17.7555 17.6353 17.5736 17.6353 17.3839V9.11736C17.6353 9.0177 17.6145 8.91915 17.5742 8.82801C17.5339 8.73687 17.475 8.65517 17.4012 8.58813Z" stroke="black" stroke-opacity="0.2" stroke-linecap="round" stroke-linejoin="round"/>
</svg>
