<svg width="20" height="20" viewBox="0 0 20 20" fill="none" xmlns="http://www.w3.org/2000/svg">
<path d="M5.26316 9.52632C2.90868 9.52632 1 7.61763 1 5.26316C1 2.90868 2.90868 1 5.26316 1C7.61763 1 9.52632 2.90868 9.52632 5.26316C9.52632 7.61763 7.61763 9.52632 5.26316 9.52632ZM5.26316 19C2.90868 19 1 17.0913 1 14.7368C1 12.3823 2.90868 10.4737 5.26316 10.4737C7.61763 10.4737 9.52632 12.3823 9.52632 14.7368C9.52632 17.0913 7.61763 19 5.26316 19ZM14.7368 9.52632C12.3823 9.52632 10.4737 7.61763 10.4737 5.26316C10.4737 2.90868 12.3823 1 14.7368 1C17.0913 1 19 2.90868 19 5.26316C19 7.61763 17.0913 9.52632 14.7368 9.52632ZM14.7368 19C12.3823 19 10.4737 17.0913 10.4737 14.7368C10.4737 12.3823 12.3823 10.4737 14.7368 10.4737C17.0913 10.4737 19 12.3823 19 14.7368C19 17.0913 17.0913 19 14.7368 19ZM5.26316 7.63158C6.5712 7.63158 7.63158 6.5712 7.63158 5.26316C7.63158 3.95512 6.5712 2.89474 5.26316 2.89474C3.95512 2.89474 2.89474 3.95512 2.89474 5.26316C2.89474 6.5712 3.95512 7.63158 5.26316 7.63158ZM5.26316 17.1053C6.5712 17.1053 7.63158 16.0449 7.63158 14.7368C7.63158 13.4288 6.5712 12.3684 5.26316 12.3684C3.95512 12.3684 2.89474 13.4288 2.89474 14.7368C2.89474 16.0449 3.95512 17.1053 5.26316 17.1053ZM14.7368 7.63158C16.0449 7.63158 17.1053 6.5712 17.1053 5.26316C17.1053 3.95512 16.0449 2.89474 14.7368 2.89474C13.4288 2.89474 12.3684 3.95512 12.3684 5.26316C12.3684 6.5712 13.4288 7.63158 14.7368 7.63158ZM14.7368 17.1053C16.0449 17.1053 17.1053 16.0449 17.1053 14.7368C17.1053 13.4288 16.0449 12.3684 14.7368 12.3684C13.4288 12.3684 12.3684 13.4288 12.3684 14.7368C12.3684 16.0449 13.4288 17.1053 14.7368 17.1053Z" fill="#212328"/>
</svg>
