<svg width="20" height="20" viewBox="0 0 20 20" fill="none" xmlns="http://www.w3.org/2000/svg">
<path d="M1.42871 10C1.42871 10 4.00014 4 10.0001 4C16.0001 4 18.5716 10 18.5716 10C18.5716 10 16.0001 16 10.0001 16C4.00014 16 1.42871 10 1.42871 10Z" stroke="#88898A" stroke-linecap="round" stroke-linejoin="round"/>
<path d="M1.42871 10C1.42871 10 4.00014 4 10.0001 4C16.0001 4 18.5716 10 18.5716 10C18.5716 10 16.0001 16 10.0001 16C4.00014 16 1.42871 10 1.42871 10Z" stroke="black" stroke-opacity="0.2" stroke-linecap="round" stroke-linejoin="round"/>
<path d="M10.0001 12.5706C11.4203 12.5706 12.5716 11.4193 12.5716 9.99916C12.5716 8.579 11.4203 7.42773 10.0001 7.42773C8.57998 7.42773 7.42871 8.579 7.42871 9.99916C7.42871 11.4193 8.57998 12.5706 10.0001 12.5706Z" stroke="#88898A" stroke-linecap="round" stroke-linejoin="round"/>
<path d="M10.0001 12.5706C11.4203 12.5706 12.5716 11.4193 12.5716 9.99916C12.5716 8.579 11.4203 7.42773 10.0001 7.42773C8.57998 7.42773 7.42871 8.579 7.42871 9.99916C7.42871 11.4193 8.57998 12.5706 10.0001 12.5706Z" stroke="black" stroke-opacity="0.2" stroke-linecap="round" stroke-linejoin="round"/>
</svg>
